<svg width="666.6666870117188" height="710" version="1.1" xmlns="http://www.w3.org/2000/svg" style="width: 1000.67px; height: 710px;"><g transform="translate(100,100) scale(1.23)"><path class="link" d="M101.79402621608564,333.81160714285716L101.79402621608564,273.4107142857143L407.2194453126797,273.4107142857143" id="node_9710:node_1537" style="fill: none; stroke-width: 3; stroke: grey; cursor: pointer;"></path><path class="link" d="M101.79402621608564,333.81160714285716L101.79402621608564,394.2125L140.48735142397499,394.2125" id="node_9710:node_8838" style="fill: none; stroke-width: 3; stroke: grey; cursor: pointer;"></path><path class="link" d="M275.68503506455875,109.36428571428573L275.68503506455875,54.682142857142864L402.41139898507214,54.682142857142864" id="node_8067:node_5817" style="fill: none; stroke-width: 3; stroke: grey; cursor: pointer;"></path><path class="link" d="M275.68503506455875,109.36428571428573L275.68503506455875,164.04642857142858L299.61078940908203,164.04642857142858" id="node_8067:node_7998" style="fill: none; stroke-width: 3; stroke: grey; cursor: pointer;"></path><path class="link" d="M20,221.58794642857146L20,109.36428571428573L275.68503506455875,109.36428571428573" id="node_2742:node_8067" style="fill: none; stroke-width: 3; stroke: grey; cursor: pointer;"></path><path class="link" d="M20,221.58794642857146L20,333.81160714285716L101.79402621608564,333.81160714285716" id="node_2742:node_9710" style="fill: none; stroke-width: 3; stroke: grey; cursor: pointer;"></path><path class="link" d="M140.48735142397499,394.2125L140.48735142397499,360.11785714285713L221.4227979387021,360.11785714285713" id="node_8838:node_2923" style="fill: none; stroke-width: 3; stroke: grey; cursor: pointer;"></path><path class="link" d="M140.48735142397499,394.2125L140.48735142397499,428.3071428571429L289.76574216683804,428.3071428571429" id="node_8838:node_6083" style="fill: none; stroke-width: 3; stroke: grey; cursor: pointer;"></path><path class="link" d="M407.2194453126797,273.4107142857143L407.2194453126797,246.06964285714287L408.70765012836773,246.06964285714287" id="node_1537:node_1810" style="fill: none; stroke-width: 3; stroke: grey; cursor: pointer;"></path><path class="link" d="M407.2194453126797,273.4107142857143L407.2194453126797,300.7517857142857L486.66668701171875,300.7517857142857" id="node_1537:node_4062" style="fill: none; stroke-width: 3; stroke: grey; cursor: pointer;"></path><path class="link" d="M299.61078940908203,164.04642857142858L299.61078940908203,136.70535714285714L409.73794576999785,136.70535714285714" id="node_7998:node_6652" style="fill: none; stroke-width: 3; stroke: grey; cursor: pointer;"></path><path class="link" d="M299.61078940908203,164.04642857142858L299.61078940908203,191.38750000000002L412.3709235208306,191.38750000000002" id="node_7998:node_7841" style="fill: none; stroke-width: 3; stroke: grey; cursor: pointer;"></path><path class="link" d="M402.41139898507214,54.682142857142864L402.41139898507214,27.34107142857143L421.07119782793,27.34107142857143" id="node_5817:node_8272" style="fill: none; stroke-width: 3; stroke: grey; cursor: pointer;"></path><path class="link" d="M402.41139898507214,54.682142857142864L402.41139898507214,82.02321428571429L431.83206341828975,82.02321428571429" id="node_5817:node_8153" style="fill: none; stroke-width: 3; stroke: grey; cursor: pointer;"></path><g class="node" transform="translate(140.4873504638672,394.2124938964844)" id="node_8838" style="cursor: crosshair;"><circle class="node" r="4" style="fill: black;"></circle><rect class="node" y="-4px" x="-4px" width="0px" height="0px" style="stroke-width: 2px; stroke: black;"></rect><text x="-13" dy="-.3em" dx=".3em" text-anchor="end" font-size="7px" style="fill-opacity: 1; font-family: sans-serif; font-weight: normal;">69</text><text class="triangleText" dy=".35em" font-size="7px" style="fill-opacity: 1e-06; font-family: sans-serif; font-weight: normal; fill: rgb(0, 0, 0);" x="0"></text><path d="M0,0L0,0L0,0L0,0" style="fill: rgb(0, 0, 0);"></path></g><g class="node" transform="translate(407.2194519042969,273.41070556640625)" id="node_1537" style="cursor: crosshair;"><circle class="node" r="4" style="fill: black;"></circle><rect class="node" y="-4px" x="-4px" width="0px" height="0px" style="stroke-width: 2px; stroke: black;"></rect><text x="-13" dy="-.3em" dx=".3em" text-anchor="end" font-size="7px" style="fill-opacity: 1; font-family: sans-serif; font-weight: normal;">100</text><text class="triangleText" dy=".35em" font-size="7px" style="fill-opacity: 1e-06; font-family: sans-serif; font-weight: normal; fill: rgb(0, 0, 0);" x="0"></text><path d="M0,0L0,0L0,0L0,0" style="fill: rgb(0, 0, 0);"></path></g><g class="node" transform="translate(101.79402923583984,333.8116149902344)" id="node_9710" style="cursor: crosshair;"><circle class="node" r="4" style="fill: black;"></circle><rect class="node" y="-4px" x="-4px" width="0px" height="0px" style="stroke-width: 2px; stroke: black;"></rect><text x="-13" dy="-.3em" dx=".3em" text-anchor="end" font-size="7px" style="fill-opacity: 1; font-family: sans-serif; font-weight: normal;">100</text><text class="triangleText" dy=".35em" font-size="14px" style="fill-opacity: 1e-06; font-family: sans-serif;" x="0"></text><path d="M0,0L0,0L0,0L0,0"></path></g><g class="node" transform="translate(299.61077880859375,164.0464324951172)" id="node_7998" style="cursor: crosshair;"><circle class="node" r="4" style="fill: black;"></circle><rect class="node" y="-4px" x="-4px" width="0px" height="0px" style="stroke-width: 2px; stroke: black;"></rect><text x="-13" dy="-.3em" dx=".3em" text-anchor="end" font-size="7px" style="fill-opacity: 1; font-family: sans-serif; font-weight: normal;">68</text><text class="triangleText" dy=".35em" font-size="7px" style="fill-opacity: 1e-06; font-family: sans-serif; font-weight: normal; fill: rgb(0, 0, 0);" x="0"></text><path d="M0,0L0,0L0,0L0,0" style="fill: rgb(0, 0, 0);"></path></g><g class="node" transform="translate(275.6850280761719,109.36428833007812)" id="node_8067" style="cursor: crosshair;"><circle class="node" r="4" style="fill: black;"></circle><rect class="node" y="-4px" x="-4px" width="0px" height="0px" style="stroke-width: 2px; stroke: black;"></rect><text x="-13" dy="-.3em" dx=".3em" text-anchor="end" font-size="7px" style="fill-opacity: 1; font-family: sans-serif; font-weight: normal;">100</text><text class="triangleText" dy=".35em" font-size="14px" style="fill-opacity: 1e-06; font-family: sans-serif;" x="0"></text><path d="M0,0L0,0L0,0L0,0"></path></g><g class="node" transform="translate(20,221.58795166015625)" id="node_2742" style="cursor: crosshair;"><circle class="node" r="4" style="fill: black;"></circle><rect class="node" y="-4px" x="-4px" width="0px" height="0px" style="stroke-width: 2px; stroke: black;"></rect><text x="-13" dy="-.3em" dx=".3em" text-anchor="end" font-size="7px" style="fill-opacity: 1; font-family: sans-serif; font-weight: normal;"></text><text class="triangleText" dy=".35em" font-size="14px" style="fill-opacity: 1e-06; font-family: sans-serif;" x="0"></text><path d="M0,0L0,0L0,0L0,0"></path></g><g class="node" transform="translate(402.4114074707031,54.68214416503906)" id="node_5817" style="cursor: crosshair;"><circle class="node" r="4" style="fill: black;"></circle><rect class="node" y="-4px" x="-4px" width="0px" height="0px" style="stroke-width: 2px; stroke: black;"></rect><text x="-13" dy="-.3em" dx=".3em" text-anchor="end" font-size="7px" style="fill-opacity: 1; font-family: sans-serif; font-weight: normal;">100</text><text class="triangleText" dy=".35em" font-size="7px" style="fill-opacity: 1e-06; font-family: sans-serif; font-weight: normal; fill: rgb(0, 0, 0);" x="0"></text><path d="M0,0L0,0L0,0L0,0" style="fill: rgb(0, 0, 0);"></path></g><g class="node" transform="translate(289.7657470703125,428.30712890625)" id="node_6083" style="cursor: crosshair;"><circle class="node" r="4" style="fill: orange;"></circle><rect class="node" y="-4px" x="-4px" width="0px" height="0px" style="stroke-width: 2px; stroke: black;"></rect><text x="-13" dy="-.3em" dx=".3em" text-anchor="end" font-size="7px" style="fill-opacity: 1; font-family: sans-serif; font-weight: normal;">100</text><text class="triangleText" dy=".35em" font-size="7px" style="fill-opacity: 1; font-family: sans-serif; font-weight: normal; fill: rgb(0, 0, 0);" x="155.2862256496898">1, 2, 3, 7, 255, 306, 8, 74, 127, 143...</text><path d="M0,0L150.2862256496898,-34.42142857142857L150.2862256496898,34.42142857142857L0,0" style="fill: rgb(0, 0, 0);"></path></g><g class="node" transform="translate(221.42279052734375,360.11785888671875)" id="node_2923" style="cursor: crosshair;"><circle class="node" r="4" style="fill: orange;"></circle><rect class="node" y="-4px" x="-4px" width="0px" height="0px" style="stroke-width: 2px; stroke: black;"></rect><text x="-13" dy="-.3em" dx=".3em" text-anchor="end" font-size="7px" style="fill-opacity: 1; font-family: sans-serif; font-weight: normal;">96</text><text class="triangleText" dy=".35em" font-size="7px" style="fill-opacity: 1; font-family: sans-serif; font-weight: normal; fill: rgb(0, 0, 0);" x="280.42577957459497">6, 325, 39, 40, 347, 157, 300, 237, 238, 58...</text><path d="M0,0L275.42577957459497,-30.28214285714286L275.42577957459497,30.28214285714286L0,0" style="fill: rgb(0, 0, 0);"></path></g><g class="node" transform="translate(486.66668701171875,300.7518005371094)" id="node_4062" style="cursor: crosshair;"><circle class="node" r="4" style="fill: orange;"></circle><rect class="node" y="-4px" x="-4px" width="0px" height="0px" style="stroke-width: 2px; stroke: black;"></rect><text x="-13" dy="-.3em" dx=".3em" text-anchor="end" font-size="7px" style="fill-opacity: 1; font-family: sans-serif; font-weight: normal;">100</text><text class="triangleText" dy=".35em" font-size="7px" style="fill-opacity: 1; font-family: sans-serif; font-weight: normal; fill: rgb(0, 0, 0);" x="12.841694605740884">93, 94, 95, 133, 134, 135</text><path d="M0,0L7.841694605740884,-1.3071428571428572L7.841694605740884,1.3071428571428572L0,0" style="fill: rgb(0, 0, 0);"></path></g><g class="node" transform="translate(408.7076416015625,246.06964111328125)" id="node_1810" style="cursor: crosshair;"><circle class="node" r="4" style="fill: orange;"></circle><rect class="node" y="-4px" x="-4px" width="0px" height="0px" style="stroke-width: 2px; stroke: black;"></rect><text x="-13" dy="-.3em" dx=".3em" text-anchor="end" font-size="7px" style="fill-opacity: 1; font-family: sans-serif; font-weight: normal;">28</text><text class="triangleText" dy=".35em" font-size="7px" style="fill-opacity: 1; font-family: sans-serif; font-weight: normal; fill: rgb(0, 0, 0);" x="85.58629076950803">10, 11, 18, 309, 322, 195, 196, 197, 198, 57...</text><path d="M0,0L80.58629076950803,-8.714285714285715L80.58629076950803,8.714285714285715L0,0" style="fill: rgb(0, 0, 0);"></path></g><g class="node" transform="translate(412.37091064453125,191.3874969482422)" id="node_7841" style="cursor: crosshair;"><circle class="node" r="4" style="fill: black;"></circle><rect class="node" y="-4px" x="-4px" width="0px" height="0px" style="stroke-width: 2px; stroke: black;"></rect><text x="13" dy=".3em" dx="-.3em" text-anchor="start" font-size="7px" style="fill-opacity: 1; font-family: sans-serif; font-weight: normal; fill: black;">288_XP_003543470_1_Glycine_max</text><text class="triangleText" dy=".35em" font-size="7px" style="fill-opacity: 1e-06; font-family: sans-serif;"></text><path d="M0,0L0,0L0,0L0,0"></path></g><g class="node" transform="translate(409.7379455566406,136.70535278320312)" id="node_6652" style="cursor: crosshair;"><circle class="node" r="4" style="fill: orange;"></circle><rect class="node" y="-4px" x="-4px" width="0px" height="0px" style="stroke-width: 2px; stroke: black;"></rect><text x="-13" dy="-.3em" dx=".3em" text-anchor="end" font-size="7px" style="fill-opacity: 1; font-family: sans-serif; font-weight: normal;">100</text><text class="triangleText" dy=".35em" font-size="7px" style="fill-opacity: 1; font-family: sans-serif; font-weight: normal; fill: rgb(0, 0, 0);" x="5">208, 209</text><path d="M0,0L0,-0.4357142857142857L0,0.4357142857142857L0,0" style="fill: rgb(0, 0, 0);"></path></g><g class="node" transform="translate(431.8320617675781,82.0232162475586)" id="node_8153" style="cursor: crosshair;"><circle class="node" r="4" style="fill: black;"></circle><rect class="node" y="-4px" x="-4px" width="0px" height="0px" style="stroke-width: 2px; stroke: black;"></rect><text x="13" dy=".3em" dx="-.3em" text-anchor="start" font-size="7px" style="fill-opacity: 1; font-family: sans-serif; font-weight: normal; fill: black;">148_XP_020212235_1_Cajanus_cajan</text><text class="triangleText" dy=".35em" font-size="7px" style="fill-opacity: 1e-06; font-family: sans-serif;"></text><path d="M0,0L0,0L0,0L0,0"></path></g><g class="node" transform="translate(421.0711975097656,27.34107208251953)" id="node_8272" style="cursor: crosshair;"><circle class="node" r="4" style="fill: orange;"></circle><rect class="node" y="-4px" x="-4px" width="0px" height="0px" style="stroke-width: 2px; stroke: black;"></rect><text x="-13" dy="-.3em" dx=".3em" text-anchor="end" font-size="7px" style="fill-opacity: 1; font-family: sans-serif; font-weight: normal;">99</text><text class="triangleText" dy=".35em" font-size="7px" style="fill-opacity: 1; font-family: sans-serif; font-weight: normal; fill: rgb(0, 0, 0);" x="14.00554708980468">34, 246, 342</text><path d="M0,0L9.00554708980468,-0.6535714285714286L9.00554708980468,0.6535714285714286L0,0" style="fill: rgb(0, 0, 0);"></path></g></g></svg>